<?xml version="1.0" encoding="UTF-8" standalone="no"?>
<svg
   xmlns:dc="http://purl.org/dc/elements/1.1/"
   xmlns:cc="http://creativecommons.org/ns#"
   xmlns:rdf="http://www.w3.org/1999/02/22-rdf-syntax-ns#"
   xmlns:svg="http://www.w3.org/2000/svg"
   xmlns="http://www.w3.org/2000/svg"
   xmlns:sodipodi="http://sodipodi.sourceforge.net/DTD/sodipodi-0.dtd"
   xmlns:inkscape="http://www.inkscape.org/namespaces/inkscape"
   width="30.000237mm"
   height="29.99972mm"
   viewBox="0 0 30.000237 29.99972"
   version="1.1"
   id="svg8"
   sodipodi:docname="openspeed-favicon.svg"
   inkscape:version="1.0 (4035a4fb49, 2020-05-01)">
  <defs
     id="defs2" />
  <sodipodi:namedview
     id="base"
     pagecolor="#000000"
     bordercolor="#666666"
     borderopacity="1.0"
     inkscape:pageopacity="0"
     inkscape:pageshadow="2"
     inkscape:zoom="1.4"
     inkscape:cx="178.24698"
     inkscape:cy="57.895155"
     inkscape:document-units="mm"
     inkscape:current-layer="layer1"
     inkscape:document-rotation="0"
     showgrid="false"
     inkscape:window-width="2560"
     inkscape:window-height="1377"
     inkscape:window-x="-8"
     inkscape:window-y="-8"
     inkscape:window-maximized="1"
     fit-margin-top="0"
     fit-margin-left="0"
     fit-margin-right="0"
     fit-margin-bottom="0"
     inkscape:pagecheckerboard="true" />
  <metadata
     id="metadata5">
    <rdf:RDF>
      <cc:Work
         rdf:about="">
        <dc:format>image/svg+xml</dc:format>
        <dc:type
           rdf:resource="http://purl.org/dc/dcmitype/StillImage" />
        <dc:title></dc:title>
      </cc:Work>
    </rdf:RDF>
  </metadata>
  <g
     inkscape:label="Layer 1"
     inkscape:groupmode="layer"
     id="layer1"
     transform="translate(-41.188331,-29.856368)">
    <path
       id="path10"
       style="fill:#ffffff;fill-rule:evenodd;stroke-width:0.136048"
       d="M 56.188449,29.856368 A 15,15 0 0 0 41.188331,44.856486 15,15 0 0 0 56.188449,59.856088 15,15 0 0 0 71.188567,44.856486 15,15 0 0 0 56.188449,29.856368 Z m -0.06046,2.500106 a 12.5,12.5 0 0 1 0.06046,0 A 12.5,12.5 0 0 1 68.688461,44.856486 12.5,12.5 0 0 1 56.188449,57.356498 12.5,12.5 0 0 1 43.688437,44.856486 12.5,12.5 0 0 1 56.127986,32.356474 Z" />
    <circle
       style="fill:#ffffff;stroke-width:0.163998"
       id="path75"
       cx="56.18845"
       cy="45.203407"
       r="1" />
    <rect
       style="fill:#ffffff;stroke-width:0.761117"
       id="rect79"
       width="13.12197"
       height="0.70212042"
       x="-4.1303544"
       y="70.806427"
       transform="matrix(0.74219356,-0.67018558,0.69851301,0.71559736,0,0)" />
  </g>
</svg>
