<?xml version="1.0" encoding="UTF-8" standalone="no"?>
<svg
   xmlns:dc="http://purl.org/dc/elements/1.1/"
   xmlns:cc="http://creativecommons.org/ns#"
   xmlns:rdf="http://www.w3.org/1999/02/22-rdf-syntax-ns#"
   xmlns:svg="http://www.w3.org/2000/svg"
   xmlns="http://www.w3.org/2000/svg"
   xmlns:sodipodi="http://sodipodi.sourceforge.net/DTD/sodipodi-0.dtd"
   xmlns:inkscape="http://www.inkscape.org/namespaces/inkscape"
   inkscape:version="1.0 (4035a4fb49, 2020-05-01)"
   sodipodi:docname="openspeed-logo.svg"
   id="svg8"
   version="1.1"
   viewBox="0 0 147.91956 32.99972"
   height="29.99972mm"
   width="147.91956mm">
  <defs
     id="defs2" />
  <sodipodi:namedview
     inkscape:pagecheckerboard="true"
     fit-margin-bottom="0"
     fit-margin-right="0"
     fit-margin-left="0"
     fit-margin-top="0"
     inkscape:window-maximized="1"
     inkscape:window-y="-8"
     inkscape:window-x="-8"
     inkscape:window-height="1377"
     inkscape:window-width="2560"
     showgrid="false"
     inkscape:document-rotation="0"
     inkscape:current-layer="layer1"
     inkscape:document-units="mm"
     inkscape:cy="57.895155"
     inkscape:cx="178.24698"
     inkscape:zoom="1.4"
     inkscape:pageshadow="2"
     inkscape:pageopacity="0"
     borderopacity="1.0"
     bordercolor="#666666"
     pagecolor="#000000"
     id="base" />
  <metadata
     id="metadata5">
    <rdf:RDF>
      <cc:Work
         rdf:about="">
        <dc:format>image/svg+xml</dc:format>
        <dc:type
           rdf:resource="http://purl.org/dc/dcmitype/StillImage" />
        <dc:title></dc:title>
      </cc:Work>
    </rdf:RDF>
  </metadata>
  <g
     transform="translate(-41.188331,-29.856368)"
     id="layer1"
     inkscape:groupmode="layer"
     inkscape:label="Layer 1">
    <path
       d="M 56.188449,29.856368 A 15,15 0 0 0 41.188331,44.856486 15,15 0 0 0 56.188449,59.856088 15,15 0 0 0 71.188567,44.856486 15,15 0 0 0 56.188449,29.856368 Z m -0.06046,2.500106 a 12.5,12.5 0 0 1 0.06046,0 A 12.5,12.5 0 0 1 68.688461,44.856486 12.5,12.5 0 0 1 56.188449,57.356498 12.5,12.5 0 0 1 43.688437,44.856486 12.5,12.5 0 0 1 56.127986,32.356474 Z"
       style="fill:#ffffff;fill-rule:evenodd;stroke-width:0.136048"
       id="path10" />
    <text
       id="text31"
       y="52.72768"
       x="71.720963"
       style="font-style:normal;font-weight:normal;font-size:22.5778px;line-height:1.25;font-family:sans-serif;fill:#ffffff;fill-opacity:1;stroke:none;stroke-width:0.264583"
       xml:space="preserve"><tspan
         style="font-size:22.5778px;fill:#ffffff;stroke-width:0.264583"
         y="52.72768"
         x="71.720963"
         id="tspan29"
         sodipodi:role="line">PENSPEED</tspan></text>
    <circle
       r="1"
       cy="45.203407"
       cx="56.18845"
       id="path75"
       style="fill:#ffffff;stroke-width:0.163998" />
    <rect
       transform="matrix(0.74219356,-0.67018558,0.69851301,0.71559736,0,0)"
       y="70.806427"
       x="-4.1303544"
       height="0.70212042"
       width="13.12197"
       id="rect79"
       style="fill:#ffffff;stroke-width:0.761117" />
  </g>
</svg>
